<svg height="454pt" viewBox="-1 0 454 454.682" width="454pt" xmlns="http://www.w3.org/2000/svg"><path d="m26.800781 91.601562h398.839844v360.082032h-398.839844zm0 0" fill="#fce8cb"/><path d="m425.640625 88.601562h-398.839844c-1.65625 0-3 1.34375-3 3v194.324219c0 1.65625 1.34375 3 3 3 1.660157 0 3-1.34375 3-3v-191.324219h392.839844v354.082032h-392.839844v-133.421875c0-1.65625-1.339843-3-3-3-1.65625 0-3 1.34375-3 3v136.421875c0 1.65625 1.34375 3 3 3h398.839844c1.65625 0 3-1.34375 3-3v-360.082032c0-1.65625-1.34375-3-3-3zm0 0" fill="#3a312a"/><path d="m349.703125 234.496094h-246.441406c-8.855469 0-16.03125 7.179687-16.03125 16.03125v132.945312c0 8.851563 7.179687 16.03125 16.03125 16.03125h246.441406c8.851563 0 16.027344-7.179687 16.027344-16.03125v-132.945312c0-8.851563-7.175781-16.03125-16.027344-16.03125zm0 0" fill="#8ac6dd"/><path d="m349.703125 231.496094h-246.441406c-10.492188 0-19.03125 8.539062-19.03125 19.03125v132.945312c0 10.492188 8.539062 19.03125 19.03125 19.03125h246.441406c10.492187 0 19.027344-8.539062 19.027344-19.03125v-132.945312c0-10.492188-8.535157-19.03125-19.027344-19.03125zm13.027344 151.976562c0 7.183594-5.84375 13.03125-13.027344 13.03125h-246.441406c-7.183594 0-13.03125-5.847656-13.03125-13.03125v-132.945312c0-7.183594 5.847656-13.03125 13.03125-13.03125h246.441406c7.183594 0 13.027344 5.847656 13.027344 13.03125zm0 0" fill="#3a312a"/><path d="m378.71875 3.382812h-304.996094l-70.382812 88.214844h445.761718zm0 0" fill="#f16c7a"/><path d="m451.449219 89.726562-70.382813-88.214843c-.570312-.714844-1.433594-1.128907-2.347656-1.128907h-59.9375c-1.65625 0-3 1.34375-3 3 0 1.660157 1.34375 3 3 3h58.496094l65.59375 82.214844h-433.300782l65.597657-82.214844h217.160156c1.65625 0 3-1.339843 3-3 0-1.65625-1.34375-3-3-3h-218.605469c-.914062 0-1.773437.417969-2.34375 1.128907l-70.382812 88.214843c-.71875.902344-.859375 2.132813-.359375 3.171876.5 1.039062 1.550781 1.699218 2.703125 1.699218h445.761718c1.152344 0 2.203126-.660156 2.703126-1.699218.5-1.039063.363281-2.269532-.355469-3.171876zm0 0" fill="#3a312a"/><path d="m92.472656 91.597656v48.558594c.003906-.289062.019532-.570312.019532-.863281.003906 24.617187 19.960937 44.574219 44.578124 44.574219 23.96875 0 43.511719-18.917969 44.527344-42.640626v-49.628906zm0 0" fill="#d7e057"/><path d="m181.597656 88.597656h-89.125c-1.660156 0-3 1.34375-3 3v48.558594c0 .167969.011719.332031.039063.496094.722656 25.605468 21.78125 46.214844 47.554687 46.214844 25.558594 0 46.433594-19.992188 47.53125-45.640626v-49.628906c0-1.65625-1.34375-3-3-3zm-44.527344 92.269532c-22.925781 0-41.574218-18.648438-41.578124-41.574219 0-.121094-.003907-.242188-.019532-.359375v-44.335938h83.125l.003906 46.503906c-.957031 22.296876-19.199218 39.765626-41.53125 39.765626zm0 0" fill="#3a312a"/><path d="m3.339844 91.597656v47.695313c0 24.617187 19.960937 44.574219 44.578125 44.574219 24.328125 0 44.09375-19.492188 44.554687-43.710938v-48.558594zm0 0" fill="#f16c7a"/><path d="m92.472656 88.597656h-89.132812c-1.65625 0-3 1.34375-3 3v47.695313c0 26.234375 21.34375 47.574219 47.578125 47.574219 25.730469 0 47.0625-20.925782 47.554687-46.710938v-48.558594c0-1.65625-1.34375-3-3-3zm-44.554687 92.269532c-22.925781 0-41.578125-18.652344-41.578125-41.574219v-44.695313h83.132812v45.503906c-.429687 22.476563-19.070312 40.765626-41.554687 40.765626zm0 0" fill="#3a312a"/><path d="m359.847656 91.597656v50.585938c.058594-.957032.101563-1.917969.101563-2.890625.003906 24.617187 19.957031 44.574219 44.578125 44.574219 24.617187 0 44.574218-19.957032 44.574218-44.574219v-47.695313zm0 0" fill="#f16c7a"/><path d="m449.101562 88.597656h-89.253906c-1.65625 0-3 1.34375-3 3v50.585938c0 .453125.101563.886718.28125 1.273437 2.117188 24.292969 22.566406 43.414063 47.398438 43.414063 26.234375 0 47.574218-21.34375 47.574218-47.578125v-47.695313c0-1.65625-1.339843-3-3-3zm-3 50.695313c0 22.921875-18.648437 41.574219-41.574218 41.574219-22.925782 0-41.578125-18.648438-41.578125-41.574219 0-.269531-.035157-.53125-.101563-.78125v-43.914063h83.253906zm0 0" fill="#3a312a"/><path d="m270.722656 91.597656v50.222656c.046875-.835937.074219-1.679687.074219-2.53125 0 24.617188 19.957031 44.578126 44.578125 44.578126 23.644531 0 42.980469-18.417969 44.472656-41.6875v-50.582032zm0 0" fill="#d7e057"/><path d="m359.847656 88.597656h-89.125c-1.65625 0-3 1.34375-3 3v50.222656c0 .394532.074219.773438.214844 1.117188 1.867188 24.539062 22.429688 43.929688 47.4375 43.929688 25.019531 0 45.867188-19.546876 47.472656-44.6875v-50.582032c0-1.65625-1.34375-3-3-3zm-44.472656 92.269532c-22.925781 0-41.578125-18.652344-41.578125-41.574219 0-.234375-.023437-.457031-.074219-.675781v-44.019532h83.125l.003906 47.390625c-1.394531 21.800781-19.613281 38.878907-41.476562 38.878907zm0 0" fill="#3a312a"/><path d="m181.597656 91.597656v49.628906c.027344-.640624.046875-1.285156.046875-1.933593 0 24.617187 19.960938 44.574219 44.578125 44.574219 23.765625 0 43.183594-18.601563 44.5-42.042969v-50.226563zm0 0" fill="#f16c7a"/><path d="m270.722656 88.597656h-89.125c-1.660156 0-3 1.34375-3 3v49.628906c0 .308594.042969.601563.128906.882813 1.460938 24.925781 22.207032 44.757813 47.492188 44.757813 25.226562 0 46.085938-19.710938 47.5-45.046876v-50.222656c.003906-1.65625-1.339844-3-2.996094-3zm-44.5 92.269532c-22.925781 0-41.578125-18.652344-41.578125-41.574219 0-.183594-.015625-.367188-.046875-.542969v-44.152344h83.125l.003906 47.054688c-1.230468 21.988281-19.460937 39.214844-41.503906 39.214844zm0 0" fill="#3a312a"/><path d="m377.28125 6.382812h-30l65.582031 82.222657h30zm0 0" fill="#d34e5c"/><path d="m416.101562 94.605469v44.679687c0 17.660156-11.039062 32.757813-26.578124 38.777344 4.636718 1.800781 9.71875 2.800781 15 2.800781 22.9375 0 41.578124-18.640625 41.578124-41.578125v-44.679687zm0 0" fill="#d34e5c"/><path d="m189.300781 323.242188h-.019531l-18.339844 8.5c3.121094 3.621093 5.039063 7.917968 5.742188 12.378906l18.339844-8.5zm0 0" fill="#87796f"/><path d="m197.746094 334.363281-5.71875-12.378906c-.675782-1.460937-2.550782-2.140625-4.007813-1.464844l-18.339843 8.5c-.855469.394531-1.472657 1.167969-1.667969 2.089844-.199219.917969.042969 1.875.65625 2.589844 2.671875 3.097656 4.417969 6.863281 5.050781 10.886719.144531.929687.71875 1.738281 1.550781 2.183593.4375.234375.925781.351563 1.414063.351563.429687 0 .859375-.089844 1.261718-.277344l18.339844-8.5c1.5-.695312 2.15625-2.476562 1.460938-3.980469zm-18.976563 5.484375c-.746093-2.445312-1.828125-4.78125-3.21875-6.9375l12.285157-5.691406 3.207031 6.941406zm0 0" fill="#3a312a"/><path d="m169.480469 330.183594c-9.859375-9.644532-25.667969-9.464844-35.308594.390625-9.636719 9.859375-9.460937 25.667969.394531 35.308593 9.859375 9.640626 25.667969 9.464844 35.308594-.394531s9.460938-25.664062-.394531-35.304687zm-7.84375 27.25c-5.191407 5.308594-13.703125 5.40625-19.015625.210937-5.308594-5.191406-5.402344-13.703125-.210938-19.011719 5.191406-5.308593 13.703125-5.402343 19.011719-.210937s5.40625 13.703125.214844 19.011719zm0 0" fill="#f16c7a" fill-rule="evenodd"/><path d="m163.523438 336.277344c-3.140626-3.074219-7.289063-4.726563-11.683594-4.6875-4.390625.046875-8.503906 1.804687-11.574219 4.945312s-4.734375 7.289063-4.6875 11.679688c.050781 4.394531 1.808594 8.503906 4.949219 11.574218 3.09375 3.027344 7.167968 4.6875 11.492187 4.6875h.1875c4.390625-.046874 8.5-1.804687 11.574219-4.945312h-.003906c6.34375-6.484375 6.226562-16.914062-.253906-23.253906zm-4.03125 19.058594c-1.953126 1.992187-4.5625 3.113281-7.351563 3.140624-2.796875.082032-5.425781-1.023437-7.421875-2.976562-1.992188-1.949219-3.109375-4.558594-3.140625-7.351562-.03125-2.789063 1.027344-5.421876 2.976563-7.417969 2.042968-2.089844 4.753906-3.136719 7.46875-3.136719 2.636718 0 5.273437.988281 7.300781 2.96875 4.121093 4.03125 4.195312 10.65625.167969 14.773438zm12.085937-27.296876c-5.339844-5.226562-12.382813-8.082031-19.867187-7.972656-7.46875.085938-14.460938 3.070313-19.679688 8.414063-5.226562 5.339843-8.054688 12.394531-7.972656 19.867187.085937 7.46875 3.070312 14.457032 8.414062 19.679688 5.261719 5.148437 12.191406 7.972656 19.542969 7.972656.105469 0 .214844-.003906.320313-.003906 7.46875-.082032 14.460937-3.070313 19.683593-8.410156 5.222657-5.339844 8.050781-12.394532 7.96875-19.867188-.082031-7.464844-3.070312-14.457031-8.410156-19.679688zm-3.851563 35.351563c-4.101562 4.195313-9.589843 6.542969-15.457031 6.605469-5.816406.117187-11.410156-2.15625-15.605469-6.257813-4.195312-4.101562-6.542968-9.59375-6.609374-15.460937-.066407-5.867188 2.160156-11.40625 6.261718-15.601563 4.101563-4.199219 9.59375-6.542969 15.460938-6.609375.082031-.003906.167968-.003906.25-.003906 5.773437 0 11.214844 2.21875 15.351562 6.261719 4.195313 4.105469 6.542969 9.59375 6.609375 15.460937.066407 5.867188-2.15625 11.410156-6.261719 15.605469zm0 0" fill="#3a312a"/><path d="m305.441406 274.222656-119.078125 42.695313 11.597657 25.039062 127.828124-59.21875c-3.558593-7.675781-12.382812-11.367187-20.347656-8.515625zm0 0" fill="#d7e057"/><path d="m328.511719 281.476562c-4.242188-9.148437-14.597657-13.476562-24.082031-10.078124l-119.082032 42.695312c-.792968.285156-1.429687.886719-1.753906 1.667969-.324219.777343-.308594 1.652343.046875 2.417969l11.597656 25.039062c.507813 1.097656 1.589844 1.742188 2.726563 1.742188.421875 0 .847656-.089844 1.257812-.28125l127.828125-59.21875c.71875-.332032 1.28125-.941407 1.554688-1.6875.273437-.746094.238281-1.574219-.09375-2.296876zm-129.089844 56.496094-8.957031-19.335937 115.992187-41.585938c5.578125-2 11.578125-.128906 15.046875 4.371094zm0 0" fill="#3a312a"/><path d="m176.421875 289.582031c-.660156 4.480469-2.519531 8.820313-5.621094 12.460938l18.460938 8.300781 5.601562-12.460938zm0 0" fill="#87796f"/><path d="m196.089844 295.144531-18.4375-8.296875c-.859375-.386718-1.847656-.351562-2.671875.101563-.828125.453125-1.390625 1.265625-1.527344 2.195312-.601563 4.078125-2.308594 7.867188-4.9375 10.953125-.613281.71875-.851563 1.683594-.640625 2.605469.207031.917969.835938 1.6875 1.695312 2.078125l18.460938 8.296875c.386719.179687.808594.265625 1.230469.265625.359375 0 .71875-.066406 1.0625-.195312.746093-.28125 1.34375-.851563 1.671875-1.578126l5.601562-12.457031c.679688-1.511719.003906-3.289062-1.507812-3.96875zm-8.335938 11.230469-12.34375-5.550781c1.363282-2.164063 2.421875-4.515625 3.144532-6.988281l12.339843 5.550781zm0 0" fill="#3a312a"/><path d="m169.367188 268.308594c-9.75-9.75-25.558594-9.746094-35.308594.007812-9.746094 9.75-9.742188 25.558594.007812 35.308594 9.753906 9.746094 25.5625 9.742188 35.308594-.007812 9.75-9.753907 9.746094-25.5625-.007812-35.308594zm-8.140626 27.164062c-5.25 5.25-13.761718 5.253906-19.015624.003906-5.25-5.25-5.253907-13.761718-.003907-19.015624 5.25-5.25 13.761719-5.253907 19.015625-.003907 5.25 5.25 5.253906 13.761719.003906 19.015625zm0 0" fill="#f16c7a" fill-rule="evenodd"/><path d="m163.339844 274.335938c-3.105469-3.105469-7.230469-4.8125-11.625-4.8125h-.003906c-4.390626 0-8.519532 1.710937-11.628907 4.820312-6.410156 6.414062-6.40625 16.84375.007813 23.253906 3.105468 3.105469 7.234375 4.8125 11.625 4.8125h.003906c4.394531 0 8.523438-1.710937 11.628906-4.816406 3.105469-3.109375 4.8125-7.238281 4.8125-11.632812 0-4.390626-1.710937-8.519532-4.820312-11.625zm-4.234375 19.015624c-1.972657 1.972657-4.597657 3.058594-7.386719 3.058594h-.003906c-2.785156 0-5.410156-1.085937-7.382813-3.054687-4.070312-4.074219-4.074219-10.699219-.003906-14.773438 1.972656-1.972656 4.59375-3.058593 7.386719-3.0625 2.789062 0 5.414062 1.085938 7.386718 3.058594 1.972657 1.972656 3.058594 4.59375 3.058594 7.382813.003906 2.792968-1.082031 5.417968-3.054687 7.390624zm12.382812-27.164062c-10.910156-10.90625-28.652343-10.898438-39.550781.007812-10.902344 10.90625-10.898438 28.652344.007812 39.550782 5.453126 5.453125 12.609376 8.175781 19.769532 8.175781 7.164062 0 14.328125-2.730469 19.78125-8.183594 10.902344-10.90625 10.898437-28.648437-.007813-39.550781zm-4.234375 35.308594c-8.5625 8.566406-22.5 8.570312-31.066406.007812s-8.570312-22.496094-.003906-31.066406c4.28125-4.285156 9.90625-6.425781 15.535156-6.425781 5.625 0 11.25 2.136719 15.527344 6.417969 8.566406 8.5625 8.570312 22.5.007812 31.066406zm0 0" fill="#3a312a"/><path d="m197.722656 291.519531-11.316406 25.167969 119.5625 41.335938c7.996094 2.761718 16.777344-1.03125 20.246094-8.746094zm0 0" fill="#d7e057"/><path d="m327.445312 346.539062-128.496093-57.757812c-.722657-.324219-1.550781-.347656-2.292969-.066406-.746094.28125-1.34375.847656-1.671875 1.574218l-11.316406 25.171876c-.34375.765624-.351563 1.644531-.015625 2.417968.332031.773438.976562 1.371094 1.773437 1.644532l119.558594 41.335937c2.121094.730469 4.277344 1.082031 6.394531 1.082031 7.410156 0 14.355469-4.285156 17.570313-11.433594.679687-1.515624.003906-3.289062-1.503907-3.96875zm-20.496093 8.648438-116.460938-40.261719 8.738281-19.441406 122.71875 55.160156c-3.414062 4.539063-9.398437 6.476563-14.996093 4.542969zm0 0" fill="#3a312a"/><path d="m229.917969 314.292969c-1.535157-3.316407-5.46875-4.757813-8.785157-3.222657-3.316406 1.535157-4.757812 5.46875-3.222656 8.785157 1.539063 3.316406 5.472656 4.757812 8.789063 3.222656 3.316406-1.535156 4.757812-5.46875 3.21875-8.785156zm0 0" fill="#f16c7a" fill-rule="evenodd"/><path d="m232.640625 313.03125c-1.078125-2.328125-3-4.101562-5.414063-4.984375-2.414062-.886719-5.023437-.777344-7.351562.300781-4.8125 2.226563-6.914062 7.957032-4.683594 12.769532 1.625 3.503906 5.109375 5.574218 8.742188 5.574218 1.347656 0 2.71875-.289062 4.027344-.890625 2.332031-1.082031 4.101562-3.003906 4.984374-5.414062.882813-2.414063.777344-5.023438-.304687-7.355469zm-5.328125 5.289062c-.332031.90625-1 1.628907-1.875 2.035157-1.808594.835937-3.960938.046875-4.800781-1.757813-.839844-1.8125-.050781-3.964844 1.757812-4.804687.484375-.226563 1.003907-.335938 1.519531-.335938.417969 0 .839844.074219 1.246094.222657.910156.335937 1.632813 1 2.039063 1.875s.445312 1.855468.113281 2.765624zm0 0" fill="#3a312a"/><path d="m226.480469 3c-42.726563 0-77.359375 34.636719-77.359375 77.363281 0 14.183594 8.53125 35.246094 19.925781 57.050781l7.824219 14.347657c14.691406 25.917969 31.671875 51.003906 41.472656 65 3.957031 5.648437 12.320312 5.648437 16.28125 0 19.867188-28.371094 69.222656-102.273438 69.222656-136.398438-.003906-42.726562-34.640625-77.363281-77.367187-77.363281zm0 0" fill="#8ac6dd" fill-rule="evenodd"/><path d="m226.480469 0c-44.3125 0-80.359375 36.050781-80.359375 80.363281 0 13.042969 6.820312 32.703125 20.289062 58.492188l7.824219 14.34375c.007813.011719.015625.027343.027344.039062 15.007812 26.484375 32.519531 52.246094 41.625 65.242188 2.417969 3.457031 6.378906 5.519531 10.59375 5.519531h.003906c4.214844 0 8.175781-2.0625 10.59375-5.519531 20.976563-29.949219 69.769531-103.363281 69.769531-138.117188-.003906-44.3125-36.054687-80.363281-80.367187-80.363281zm5.683593 215.039062c-1.316406 1.882813-3.386718 2.960938-5.679687 2.960938h-.003906c-2.289063 0-4.363281-1.078125-5.679688-2.960938-9.039062-12.90625-26.425781-38.476562-41.308593-64.738281l-7.785157-14.273437c-12.996093-24.871094-19.585937-43.597656-19.585937-55.667969 0-41.003906 33.355468-74.363281 74.359375-74.363281 41.003906 0 74.363281 33.359375 74.363281 74.363281 0 33.976563-52.566406 111.675781-68.679688 134.679687zm0 0" fill="#3a312a"/><path d="m269.234375 80.363281c0 23.609375-19.140625 42.75-42.753906 42.75-23.609375 0-42.75-19.140625-42.75-42.75 0-23.613281 19.140625-42.753906 42.75-42.753906 23.613281 0 42.753906 19.140625 42.753906 42.753906zm0 0" fill="#fce8cb" fill-rule="evenodd"/><path d="m226.480469 34.609375c-25.226563 0-45.753907 20.523437-45.753907 45.75 0 25.230469 20.523438 45.753906 45.753907 45.753906s45.753906-20.523437 45.753906-45.753906c0-25.226563-20.523437-45.75-45.753906-45.75zm0 85.503906c-21.917969 0-39.753907-17.832031-39.753907-39.75 0-21.921875 17.832032-39.753906 39.753907-39.753906 21.917969 0 39.753906 17.835937 39.753906 39.753906s-17.832031 39.75-39.753906 39.75zm0 0" fill="#3a312a"/><path d="m404.523438 186.859375c-4.101563 0-8.082032-.519531-11.882813-1.519531v263.339844h30v-265.398438c-5.578125 2.296875-11.699219 3.578125-18.117187 3.578125zm0 0" fill="#decaad"/></svg>